<?xml version="1.0" encoding="UTF-8"?>
<!DOCTYPE svg PUBLIC "-//W3C//DTD SVG 1.1//EN" "http://www.w3.org/Graphics/SVG/1.1/DTD/svg11.dtd">
<!-- Creator: CorelDRAW X7 -->
<svg xmlns="http://www.w3.org/2000/svg" xml:space="preserve" width="100%" height="100%" version="1.1" style="shape-rendering:geometricPrecision; text-rendering:geometricPrecision; image-rendering:optimizeQuality; fill-rule:evenodd; clip-rule:evenodd"
viewBox="0 0 327 327"
 xmlns:xlink="http://www.w3.org/1999/xlink">
 <defs>
  <style type="text/css">
   <![CDATA[
    .fil0 {fill:#2195A6;fill-opacity:0.258824}
   ]]>
  </style>
 </defs>
 <g id="Layer_x0020_1">
  <metadata id="CorelCorpID_0Corel-Layer"/>
  <g id="_92163535280">
   <polygon class="fil0" points="77,327 240,283 327,327 "/>
   <polygon class="fil0" points="40,107 138,75 54,37 -1,52 -1,93 "/>
   <polygon class="fil0" points="40,-1 40,107 -1,93 -1,-1 "/>
   <polygon class="fil0" points="327,-1 327,327 327,327 240,283 240,-1 "/>
   <polygon class="fil0" points="40,327 40,309 -1,293 -1,327 "/>
   <path class="fil0" d="M41 295c-6,-2 -11,-4 -16,-6 0,-28 0,-57 0,-85 0,-28 0,-57 0,-86 5,2 10,4 16,5 0,29 0,58 0,86 0,29 0,58 0,86z"/>
   <path class="fil0" d="M8 283l-9 -4 0 -169 9 3c0,28 0,57 0,85 0,28 0,57 0,85z"/>
   <g>
    <path class="fil0" d="M228 270c-5,1 -10,3 -15,4 -1,-60 -1,-120 -2,-180l0 -95 15 0 0 94c1,59 1,118 2,177z"/>
    <path class="fil0" d="M198 278c-6,1 -11,3 -17,4 0,-63 0,-126 -1,-188l-1 -95 17 0 0 95c1,61 1,122 2,184z"/>
    <path class="fil0" d="M164 286c-6,2 -12,3 -18,5 0,-66 -1,-131 -1,-197l-1 -95 18 0 1 95c0,64 1,128 1,192z"/>
    <polygon class="fil0" points="123,297 102,303 101,97 122,90 "/>
    <polygon class="fil0" points="101,-1 101,47 122,58 122,-1 "/>
    <polygon class="fil0" points="77,310 54,317 55,111 77,104 "/>
    <polygon class="fil0" points="54,-1 54,26 76,37 76,-1 "/>
   </g>
  </g>
 </g>
</svg>
