<?xml version="1.0" encoding="UTF-8"?>
<!DOCTYPE svg PUBLIC "-//W3C//DTD SVG 1.1//EN" "http://www.w3.org/Graphics/SVG/1.1/DTD/svg11.dtd">
<!-- Creator: CorelDRAW X7 -->
<svg xmlns="http://www.w3.org/2000/svg" xml:space="preserve" width="100%" height="100%" version="1.1" style="shape-rendering:geometricPrecision; text-rendering:geometricPrecision; image-rendering:optimizeQuality; fill-rule:evenodd; clip-rule:evenodd"
viewBox="0 0 400 307"
 xmlns:xlink="http://www.w3.org/1999/xlink">
 <defs>
  <style type="text/css">
   <![CDATA[
    .fil0 {fill:#2195A6;fill-opacity:0.258824}
   ]]>
  </style>
 </defs>
 <g id="Layer_x0020_1">
  <metadata id="CorelCorpID_0Corel-Layer"/>
  <g id="_92278809136">
   <polygon class="fil0" points="0,101 288,0 393,62 88,145 "/>
   <polygon class="fil0" points="0,307 0,101 88,145 88,307 "/>
   <polygon class="fil0" points="288,0 288,119 399,163 400,66 "/>
   <path class="fil0" d="M287 133c5,2 11,4 16,6 0,28 0,57 0,85l0 83 -10 0 -6 -2c0,-29 0,-58 0,-86 0,-29 0,-58 0,-86z"/>
   <path class="fil0" d="M320 145c5,2 10,4 15,6 0,28 0,56 0,84l0 72 -15 0 0 -77c0,-28 0,-57 0,-85z"/>
   <path class="fil0" d="M351 157c5,2 9,4 14,6 0,27 0,55 1,83l0 61 -15 0 0 -66c0,-28 0,-56 0,-84z"/>
   <path class="fil0" d="M382 169c4,2 9,3 14,5 0,28 0,55 0,83l1 50 -15 0 0 -55c0,-28 0,-56 0,-83z"/>
   <g>
    <path class="fil0" d="M100 158c5,-1 10,-3 15,-4l1 153 -15 0 -1 -149z"/>
    <path class="fil0" d="M130 150c5,-1 11,-2 16,-4l2 161 -17 0 -1 -157z"/>
    <path class="fil0" d="M164 142c6,-2 11,-3 17,-5l2 170 -18 0 -1 -165z"/>
    <polygon class="fil0" points="205,131 226,125 226,307 205,307 "/>
    <polygon class="fil0" points="251,118 274,111 273,307 251,307 "/>
   </g>
  </g>
 </g>
</svg>
