<?xml version="1.0" encoding="UTF-8"?>
<!DOCTYPE svg PUBLIC "-//W3C//DTD SVG 1.1//EN" "http://www.w3.org/Graphics/SVG/1.1/DTD/svg11.dtd">
<!-- Creator: CorelDRAW X7 -->
<svg xmlns="http://www.w3.org/2000/svg" xml:space="preserve" width="100%" height="100%" version="1.1" style="shape-rendering:geometricPrecision; text-rendering:geometricPrecision; image-rendering:optimizeQuality; fill-rule:evenodd; clip-rule:evenodd"
viewBox="0 0 460 163"
 xmlns:xlink="http://www.w3.org/1999/xlink">
 <defs>
  <style type="text/css">
   <![CDATA[
    .fil3 {fill:#009989}
    .fil1 {fill:#00AEA5}
    .fil4 {fill:#122424}
    .fil2 {fill:#17A3A5}
    .fil0 {fill:#FEFEFE}
   ]]>
  </style>
 </defs>
 <g id="Layer_x0020_1">
  <metadata id="CorelCorpID_0Corel-Layer"/>
  <g id="_92284363040">
   <path class="fil0" d="M132 102c2,-4 4,-7 6,-9 3,-2 6,-3 10,-3 2,0 4,0 5,1 2,0 4,1 6,2l-5 12c-1,-1 -2,-1 -4,-2 -1,0 -3,0 -5,0 -4,0 -8,1 -10,5 -2,4 -3,10 -3,19l0 28 -14 0 0 -63 14 0 0 10zm95 24l-49 0c0,5 2,10 5,13 3,4 7,5 12,5 5,0 9,-1 12,-3 3,-2 5,-5 8,-9l12 7c-4,6 -8,11 -13,14 -6,3 -12,4 -19,4 -10,0 -18,-3 -23,-9 -6,-6 -9,-14 -9,-24 0,-10 3,-18 9,-24 6,-7 14,-10 23,-10 10,0 18,3 24,9 5,6 8,14 8,24l0 3zm-15 -10c0,-4 -2,-8 -5,-10 -2,-2 -6,-4 -11,-4 -5,0 -9,1 -12,4 -2,2 -4,5 -6,10l34 0zm34 39l-15 0 23 -34 -20 -29 16 0 8 13c1,2 2,3 3,4 1,1 1,3 2,4 0,-1 1,-2 2,-4 0,-1 1,-2 2,-4l9 -13 15 0 -20 29 24 34 -16 0 -12 -17 0 -1c-2,-3 -4,-5 -4,-7 -1,1 -2,3 -3,4 -1,2 -2,3 -2,4l-12 17zm60 0l0 -50 -11 0 0 -13 11 0 0 -23 15 0 0 23 10 0 0 13 -10 0 0 50 -15 0zm98 -29l-50 0c0,5 2,10 5,13 3,4 7,5 13,5 4,0 8,-1 11,-3 3,-2 6,-5 8,-9l12 7c-3,6 -8,11 -13,14 -5,3 -11,4 -18,4 -10,0 -18,-3 -24,-9 -6,-6 -9,-14 -9,-24 0,-10 3,-18 9,-24 6,-7 14,-10 24,-10 10,0 18,3 23,9 6,6 9,14 9,24l0 3zm-15 -10c-1,-4 -2,-8 -5,-10 -3,-2 -7,-4 -12,-4 -5,0 -8,1 -11,4 -3,2 -5,5 -6,10l34 0zm44 -14c1,-4 3,-7 6,-9 2,-2 5,-3 9,-3 2,0 4,0 6,1 2,0 4,1 6,2l-5 12c-1,-1 -3,-1 -4,-2 -2,0 -3,0 -5,0 -5,0 -8,1 -10,5 -2,4 -3,10 -3,19l0 28 -15 0 0 -63 15 0 0 10z"/>
   <polygon class="fil1" points="0,25 71,0 98,15 22,36 "/>
   <polygon class="fil1" points="72,80 47,87 68,97 99,88 "/>
   <polygon class="fil1" points="22,129 71,142 71,164 0,140 "/>
   <polygon class="fil2" points="71,164 72,80 99,88 98,155 "/>
   <polygon class="fil3" points="0,140 0,25 22,36 22,129 "/>
   <polygon class="fil2" points="71,0 72,29 99,40 99,16 "/>
   <path class="fil0" d="M71 33c2,0 3,1 4,1 0,7 0,14 0,21 0,8 0,15 0,22 -1,-1 -2,-1 -4,-2 0,-7 0,-14 0,-21 0,-7 0,-14 0,-21z"/>
   <path class="fil0" d="M79 36c2,0 3,1 4,1 0,7 0,14 0,21 0,7 0,14 0,21 -1,0 -2,-1 -4,-1 0,-7 0,-14 0,-21 0,-7 0,-14 0,-21z"/>
   <path class="fil0" d="M87 39c1,0 2,1 4,1 0,7 0,14 0,21 0,7 0,14 0,21 -1,-1 -3,-1 -4,-1 0,-7 0,-14 0,-21 0,-7 0,-14 0,-21z"/>
   <path class="fil0" d="M95 42c1,0 2,1 3,1 0,7 0,14 0,21 0,6 0,13 0,20 -1,0 -2,-1 -3,-1 0,-7 0,-14 0,-21 0,-7 0,-13 0,-20z"/>
   <g>
    <path class="fil4" d="M25 39c1,0 2,-1 4,-1 0,15 0,30 0,45 0,15 0,30 0,45 -1,-1 -2,-1 -3,-1 -1,-15 -1,-30 -1,-44 0,-15 0,-29 0,-44z"/>
    <path class="fil4" d="M32 37c2,0 3,-1 4,-1 0,16 1,31 1,47 0,15 0,31 0,47 -1,-1 -3,-1 -4,-1 0,-16 0,-31 0,-46 0,-15 -1,-31 -1,-46z"/>
    <path class="fil4" d="M41 35c1,0 3,-1 4,-1 0,16 0,32 0,49 1,16 1,32 1,49 -2,-1 -3,-1 -5,-1 0,-16 0,-32 0,-48 0,-16 0,-32 0,-48z"/>
    <polygon class="fil4" points="51,32 56,31 56,82 51,84 "/>
    <polygon class="fil4" points="51,133 56,134 56,94 51,92 "/>
    <polygon class="fil4" points="62,29 68,27 68,79 62,80 "/>
    <polygon class="fil4" points="62,136 68,137 68,100 63,97 "/>
   </g>
  </g>
 </g>
</svg>
