<?xml version="1.0" encoding="UTF-8"?>
<!DOCTYPE svg PUBLIC "-//W3C//DTD SVG 1.1//EN" "http://www.w3.org/Graphics/SVG/1.1/DTD/svg11.dtd">
<!-- Creator: CorelDRAW X7 -->
<svg xmlns="http://www.w3.org/2000/svg" xml:space="preserve" width="100%" height="100%" version="1.1" style="shape-rendering:geometricPrecision; text-rendering:geometricPrecision; image-rendering:optimizeQuality; fill-rule:evenodd; clip-rule:evenodd"
viewBox="0 0 43 90"
 xmlns:xlink="http://www.w3.org/1999/xlink">
 <defs>
  <style type="text/css">
   <![CDATA[
    .fil0 {fill:#5B5B5B}
   ]]>
  </style>
 </defs>
 <g id="Layer_x0020_1">
  <metadata id="CorelCorpID_0Corel-Layer"/>
  <path class="fil0" d="M29 29c-1,-1 0,-5 0,-7 0,-8 0,-6 14,-6l0 -16c-2,-1 -14,0 -16,0 -22,1 -16,21 -17,29l-9 0 0 16 9 0 0 45 19 0c0,-9 0,-19 0,-29 0,-5 0,-10 0,-15 0,-2 -1,-1 1,-1 2,0 11,0 11,0 1,-1 1,-6 1,-8 0,-3 1,-5 1,-8l-14 0z"/>
 </g>
</svg>
