<?xml version="1.0" encoding="UTF-8"?>
<!DOCTYPE svg PUBLIC "-//W3C//DTD SVG 1.1//EN" "http://www.w3.org/Graphics/SVG/1.1/DTD/svg11.dtd">
<!-- Creator: CorelDRAW X7 -->
<svg xmlns="http://www.w3.org/2000/svg" xml:space="preserve" width="100%" height="100%" version="1.1" style="shape-rendering:geometricPrecision; text-rendering:geometricPrecision; image-rendering:optimizeQuality; fill-rule:evenodd; clip-rule:evenodd"
viewBox="0 0 87 87"
 xmlns:xlink="http://www.w3.org/1999/xlink">
 <defs>
  <style type="text/css">
   <![CDATA[
    .fil0 {fill:#5B5B5B}
   ]]>
  </style>
 </defs>
 <g id="Layer_x0020_1">
  <metadata id="CorelCorpID_0Corel-Layer"/>
  <g id="_57646707200">
   <path class="fil0" d="M62 31c2,4 3,6 4,12 0,25 -31,31 -42,12 -5,-9 -3,-16 1,-24 -2,0 -23,0 -25,0 -1,8 0,17 0,25 0,12 -2,23 8,29 4,2 6,2 10,2l50 0c5,0 7,0 11,-2 10,-6 8,-18 8,-29 0,-8 0,-17 0,-25 -4,0 -22,-1 -25,0z"/>
   <path class="fil0" d="M65 8c2,-1 12,-2 13,0 2,1 2,12 0,13 -1,1 -11,1 -13,0 -1,-1 -1,-11 0,-13zm-31 -9l4 0c10,0 21,1 31,1 8,0 12,3 15,8 4,5 3,13 3,20 -8,0 -17,0 -25,0 -5,0 -3,-1 -8,-4 -7,-3 -14,-3 -21,0 -6,3 -3,4 -8,4 -9,0 -17,0 -25,0 0,-4 -1,-11 0,-15 1,-2 1,-4 2,-6 2,-2 3,-2 4,-4 1,0 1,0 1,2 0,5 0,12 0,16 1,1 2,0 3,0l1 -20 1 -1c1,1 1,0 1,1l0 20c1,1 2,0 4,0l0 -21 2 0 0 21c1,0 1,0 2,0 2,0 1,0 2,0l0 -21c3,-1 7,-1 11,-1z"/>
   <path class="fil0" d="M56 46c-3,17 -28,12 -25,-5 1,-6 7,-11 15,-9 6,1 11,7 10,14zm4 1c2,-11 -6,-19 -14,-20 -10,-2 -18,6 -20,14 -1,10 6,19 15,20 10,2 18,-6 19,-14z"/>
   <path class="fil0" d="M13 21c1,1 2,0 4,0l0 -21 2 0 0 21c1,0 1,0 2,0 2,0 1,0 2,0l-4 0 0 -22 -2 0c-1,4 -1,17 -1,22l-3 0z"/>
   <path class="fil0" d="M6 3c1,0 1,0 1,2 0,5 0,12 0,16 1,1 2,0 3,0l1 -20c-1,1 -1,3 -1,5l0 15 -3 0 0 -18c-1,0 0,0 -1,0z"/>
   <path class="fil0" d="M13 1c0,-1 -1,-2 -1,-1 1,1 1,0 1,1z"/>
  </g>
 </g>
</svg>
