<?xml version="1.0" encoding="UTF-8"?>
<!DOCTYPE svg PUBLIC "-//W3C//DTD SVG 1.1//EN" "http://www.w3.org/Graphics/SVG/1.1/DTD/svg11.dtd">
<!-- Creator: CorelDRAW X7 -->
<svg xmlns="http://www.w3.org/2000/svg" xml:space="preserve" width="100%" height="100%" version="1.1" style="shape-rendering:geometricPrecision; text-rendering:geometricPrecision; image-rendering:optimizeQuality; fill-rule:evenodd; clip-rule:evenodd"
viewBox="0 0 240 397"
 xmlns:xlink="http://www.w3.org/1999/xlink">
 <defs>
  <style type="text/css">
   <![CDATA[
    .fil3 {fill:#3698AA}
    .fil2 {fill:#009989}
    .fil0 {fill:#00AEA5}
    .fil4 {fill:#122424}
    .fil1 {fill:#17A3A5}
   ]]>
  </style>
 </defs>
 <g id="Layer_x0020_1">
  <metadata id="CorelCorpID_0Corel-Layer"/>
  <g id="_92169801616">
   <polygon class="fil0" points="0,60 173,0 236,37 53,87 "/>
   <polygon class="fil0" points="173,193 114,212 165,235 239,215 "/>
   <polygon class="fil0" points="53,313 173,344 173,397 0,340 "/>
   <polygon class="fil1" points="173,397 173,193 239,215 238,376 "/>
   <polygon class="fil2" points="0,340 0,60 53,87 53,313 "/>
   <polygon class="fil1" points="173,0 173,71 240,98 240,40 "/>
   <path class="fil3" d="M173 80c3,1 6,2 9,3 0,17 0,35 0,52 0,17 0,34 0,51 -3,-1 -6,-2 -9,-3 0,-17 0,-34 0,-52 0,-17 0,-34 0,-51z"/>
   <path class="fil3" d="M192 87c3,1 6,3 9,4 0,17 0,34 0,50 0,17 0,34 0,52 -3,-1 -6,-2 -9,-3 0,-18 0,-35 0,-52 0,-17 0,-34 0,-51z"/>
   <path class="fil3" d="M211 94c3,1 6,3 9,4 0,16 0,33 0,50 0,17 0,34 0,51 -3,-1 -6,-2 -9,-3 0,-17 0,-34 0,-51 0,-17 0,-34 0,-51z"/>
   <path class="fil3" d="M229 101c3,1 6,3 9,4 0,16 0,33 0,49 0,17 0,34 0,51 -3,-1 -5,-2 -8,-3 0,-17 0,-34 -1,-51 0,-16 0,-33 0,-50z"/>
   <path class="fil4" d="M60 95c3,-1 6,-2 9,-2 0,36 0,72 1,108 0,36 0,73 0,109 -3,-1 -6,-2 -8,-2 -1,-36 -1,-71 -1,-107 -1,-35 -1,-71 -1,-106z"/>
   <path class="fil4" d="M78 90c3,-1 6,-1 10,-2 0,38 0,75 1,113 0,38 0,76 0,113 -3,0 -6,-1 -9,-2 -1,-37 -1,-74 -1,-111 0,-37 -1,-74 -1,-111z"/>
   <path class="fil4" d="M98 85c4,-1 7,-2 11,-3 0,40 0,79 1,119 0,40 0,79 1,119 -4,-1 -8,-2 -11,-3 0,-39 -1,-77 -1,-116 0,-39 -1,-77 -1,-116z"/>
   <polygon class="fil4" points="123,79 136,75 136,199 123,204 "/>
   <polygon class="fil4" points="123,323 136,326 136,229 123,223 "/>
   <polygon class="fil4" points="151,71 164,67 164,191 151,195 "/>
   <polygon class="fil4" points="151,330 164,333 164,242 151,235 "/>
  </g>
 </g>
</svg>
