<?xml version="1.0" encoding="UTF-8"?>
<!DOCTYPE svg PUBLIC "-//W3C//DTD SVG 1.1//EN" "http://www.w3.org/Graphics/SVG/1.1/DTD/svg11.dtd">
<!-- Creator: CorelDRAW X7 -->
<svg xmlns="http://www.w3.org/2000/svg" xml:space="preserve" width="100%" height="100%" version="1.1" style="shape-rendering:geometricPrecision; text-rendering:geometricPrecision; image-rendering:optimizeQuality; fill-rule:evenodd; clip-rule:evenodd"
viewBox="0 0 107 87"
 xmlns:xlink="http://www.w3.org/1999/xlink">
 <defs>
  <style type="text/css">
   <![CDATA[
    .fil0 {fill:#5B5B5B}
   ]]>
  </style>
 </defs>
 <g id="Layer_x0020_1">
  <metadata id="CorelCorpID_0Corel-Layer"/>
  <path class="fil0" d="M9 30l3 2c1,1 0,0 1,1 -1,0 -2,0 -3,0 -2,0 -5,-2 -7,-2 0,6 3,10 5,14 2,2 8,7 12,7l1 0 -1 1c-4,0 -2,0 -9,0 1,4 5,8 7,10 3,3 7,5 12,5 2,0 1,0 1,0l-1 1c0,0 0,0 -1,1 0,0 -1,0 -1,1 -9,5 -17,7 -27,6l0 1c1,1 5,3 7,4 8,4 16,5 26,5 13,0 24,-4 33,-10 13,-8 23,-22 27,-37 3,-11 1,-10 2,-19 3,-2 8,-7 10,-9l0 -1 -1 0c-2,0 -5,2 -10,2l1 -1c2,-2 7,-6 7,-9l0 -1 -1 0c-1,1 -8,4 -12,4 -2,-2 -7,-5 -12,-6 -10,-2 -20,3 -24,11 -3,6 -2,9 -2,16 -13,0 -27,-7 -37,-15 -4,-3 -7,-7 -8,-8 -1,0 -1,0 -1,1 -2,3 -3,9 -2,13 0,4 1,6 3,9 1,1 2,2 2,3z"/>
 </g>
</svg>
