<?xml version="1.0" encoding="UTF-8"?>
<!DOCTYPE svg PUBLIC "-//W3C//DTD SVG 1.1//EN" "http://www.w3.org/Graphics/SVG/1.1/DTD/svg11.dtd">
<!-- Creator: CorelDRAW X7 -->
<svg xmlns="http://www.w3.org/2000/svg" xml:space="preserve" width="100%" height="100%" version="1.1" style="shape-rendering:geometricPrecision; text-rendering:geometricPrecision; image-rendering:optimizeQuality; fill-rule:evenodd; clip-rule:evenodd"
viewBox="0 0 173 170"
 xmlns:xlink="http://www.w3.org/1999/xlink">
 <defs>
  <style type="text/css">
   <![CDATA[
    .fil0 {fill:#FEFEFE}
   ]]>
  </style>
 </defs>
 <g id="Layer_x0020_1">
  <metadata id="CorelCorpID_0Corel-Layer"/>
  <g id="_930343612048">
   <path class="fil0" d="M11 58l151 0 0 101 -151 0 0 -101zm19 -44c-11,0 -26,-2 -29,7 -2,6 -1,92 -1,102 0,43 -5,47 22,47l135 0c14,0 17,-3 16,-17l0 -101c0,-38 3,-41 -28,-38 -2,16 6,32 -14,31 -17,-1 -12,-17 -14,-31l-59 0c-1,15 4,31 -14,31 -17,0 -14,-16 -14,-31z"/>
   <path class="fil0" d="M51 5c-19,-19 -16,19 -15,31 6,6 9,5 15,2 2,-7 2,-25 0,-33z"/>
   <path class="fil0" d="M126 38c11,4 13,0 13,-11 0,-6 2,-22 -2,-25 -2,-2 -9,-3 -12,0 -3,3 -3,30 1,36z"/>
   <polygon class="fil0" points="59,120 81,120 81,101 59,101 "/>
   <polygon class="fil0" points="26,119 49,120 49,101 26,101 "/>
   <polygon class="fil0" points="91,120 114,120 114,100 91,100 "/>
   <polygon class="fil0" points="59,129 59,148 81,148 81,130 "/>
   <polygon class="fil0" points="91,92 113,92 113,72 92,72 "/>
   <polygon class="fil0" points="91,148 114,149 114,129 92,128 "/>
   <polygon class="fil0" points="124,120 146,120 147,101 124,100 "/>
   <polygon class="fil0" points="124,149 146,148 146,129 124,128 "/>
   <polygon class="fil0" points="125,92 146,92 146,72 124,72 "/>
   <polygon class="fil0" points="27,130 26,148 49,148 49,129 "/>
  </g>
 </g>
</svg>
