<?xml version="1.0" encoding="UTF-8"?>
<!DOCTYPE svg PUBLIC "-//W3C//DTD SVG 1.1//EN" "http://www.w3.org/Graphics/SVG/1.1/DTD/svg11.dtd">
<!-- Creator: CorelDRAW X7 -->
<svg xmlns="http://www.w3.org/2000/svg" xml:space="preserve" width="100%" height="100%" version="1.1" style="shape-rendering:geometricPrecision; text-rendering:geometricPrecision; image-rendering:optimizeQuality; fill-rule:evenodd; clip-rule:evenodd"
viewBox="0 0 213 143"
 xmlns:xlink="http://www.w3.org/1999/xlink">
 <defs>
  <style type="text/css">
   <![CDATA[
    .fil0 {fill:#FEFEFE}
   ]]>
  </style>
 </defs>
 <g id="Layer_x0020_1">
  <metadata id="CorelCorpID_0Corel-Layer"/>
  <path class="fil0" d="M8 1l198 0c4,0 7,4 7,9l0 124c0,5 -3,9 -7,9l-198 0c-4,0 -8,-4 -8,-9l0 -124c0,-5 4,-9 8,-9zm14 89l63 0 0 10 -63 0 0 -10zm0 18l101 0 0 11 -101 0 0 -11zm141 -86c3,0 4,-2 9,1 5,2 8,8 8,14 0,9 -7,17 -15,15 0,0 -1,0 -2,0 1,-1 2,-2 4,-6 3,-7 2,-15 -2,-21 0,-1 -1,-2 -2,-3zm-3 -3c0,0 -10,-6 -18,4 -2,3 -5,8 -5,12l0 3c0,9 6,17 13,18 3,1 5,1 7,0 1,0 1,-1 2,-1 1,-1 2,0 3,0 11,6 23,-6 21,-21 -1,-9 -8,-17 -15,-17 -6,0 -7,2 -8,2z"/>
 </g>
</svg>
