<?xml version="1.0" encoding="UTF-8"?>
<!DOCTYPE svg PUBLIC "-//W3C//DTD SVG 1.1//EN" "http://www.w3.org/Graphics/SVG/1.1/DTD/svg11.dtd">
<!-- Creator: CorelDRAW X7 -->
<svg xmlns="http://www.w3.org/2000/svg" xml:space="preserve" width="100%" height="100%" version="1.1" style="shape-rendering:geometricPrecision; text-rendering:geometricPrecision; image-rendering:optimizeQuality; fill-rule:evenodd; clip-rule:evenodd"
viewBox="0 0 110 130"
 xmlns:xlink="http://www.w3.org/1999/xlink">
 <defs>
  <style type="text/css">
   <![CDATA[
    .fil0 {fill:#898989}
   ]]>
  </style>
 </defs>
 <g id="Layer_x0020_1">
  <metadata id="CorelCorpID_0Corel-Layer"/>
  <g id="_930443403248">
   <path class="fil0" d="M28 130l54 0 14 -69c0,-4 -2,-7 -6,-7 -6,0 -6,2 -8,7l-54 0c-2,-4 -2,-7 -7,-7 -13,-1 -5,18 -3,30 3,15 6,31 10,46z"/>
   <path class="fil0" d="M20 118c0,-5 -2,-14 -4,-19 -1,-7 -2,-14 -4,-20 0,-4 -3,-17 -3,-20 1,-4 4,-6 3,-8 -2,-3 -4,-5 -5,-8l54 0c4,1 4,1 5,-3l-51 0c-4,-2 -1,-7 -9,-7 -5,0 -7,4 -6,9l14 67c0,1 5,8 6,9z"/>
   <path class="fil0" d="M65 56l6 0c5,-9 9,-18 14,-28 2,-5 4,-9 7,-14 2,-4 7,-11 1,-13 -7,-2 -8,5 -10,10 -2,5 -4,10 -6,15 -2,5 -11,27 -12,30z"/>
   <path class="fil0" d="M76 56c4,0 3,-1 6,-4 3,-3 4,-1 6,-5l16 -27c2,-4 9,-12 5,-16 -2,-2 -6,-2 -8,1l-25 51z"/>
  </g>
 </g>
</svg>
